<?xml version="1.0" encoding="UTF-8"?>
<svg width="113px" height="47px" viewBox="0 0 113 47" version="1.1" xmlns="http://www.w3.org/2000/svg" xmlns:xlink="http://www.w3.org/1999/xlink">
    <!-- Generator: Sketch 44.1 (41455) - http://www.bohemiancoding.com/sketch -->
    <title>salo</title>
    <desc>Created with Sketch.</desc>
    <defs>
        <path d="M10.776,46.64 C17.688,46.64 21.4,42.544 21.4,35.248 C21.4,29.68 19.544,26.096 13.656,20.912 C9.048,16.88 7.576,14.512 7.576,11.248 C7.576,8.176 8.856,6.96 11.096,6.96 C13.336,6.96 14.616,8.176 14.616,11.376 L14.616,13.68 L21.272,13.68 L21.272,11.824 C21.272,4.656 17.88,0.56 11.032,0.56 C4.184,0.56 0.536,4.656 0.536,11.696 C0.536,16.816 2.456,20.464 8.344,25.648 C12.952,29.68 14.36,32.048 14.36,35.76 C14.36,39.088 12.952,40.24 10.712,40.24 C8.472,40.24 7.064,39.088 7.064,35.888 L7.064,32.816 L0.408,32.816 L0.408,35.376 C0.408,42.544 3.864,46.64 10.776,46.64 Z M23.576,46 L30.872,1.2 L40.408,1.2 L47.704,46 L40.664,46 L39.384,37.104 L39.384,37.232 L31.384,37.232 L30.104,46 L23.576,46 Z M32.216,31.152 L38.5678711,31.152 L35.5430586,9.008 L32.216,31.152 Z M51.096,46 L69.72,46 L69.72,39.6 L58.136,39.6 L58.136,1.2 L51.096,1.2 L51.096,46 Z M83.288,46.64 C76.376,46.64 72.6,42.544 72.6,35.376 L72.6,11.824 C72.6,4.656 76.376,0.56 83.288,0.56 C90.2,0.56 93.976,4.656 93.976,11.824 L93.976,35.376 C93.976,42.544 90.2,46.64 83.288,46.64 Z M83.288,40.24 C85.528,40.24 86.936,39.024 86.936,35.824 L86.936,11.376 C86.936,8.176 85.528,6.96 83.288,6.96 C81.048,6.96 79.64,8.176 79.64,11.376 L79.64,35.824 C79.64,39.024 81.048,40.24 83.288,40.24 Z" id="path-1"></path>
        <linearGradient x1="50%" y1="0%" x2="50%" y2="100%" id="linearGradient-3">
            <stop stop-color="#F84242" offset="0%"></stop>
            <stop stop-color="#C01D1D" offset="100%"></stop>
        </linearGradient>
        <polygon id="path-4" points="34.4875488 1.2 40.6 1.2 47.896 46 40.6 46"></polygon>
        <filter x="-89.5%" y="-22.3%" width="249.2%" height="144.6%" filterUnits="objectBoundingBox" id="filter-5">
            <feOffset dx="-2" dy="0" in="SourceAlpha" result="shadowOffsetOuter1"></feOffset>
            <feGaussianBlur stdDeviation="3" in="shadowOffsetOuter1" result="shadowBlurOuter1"></feGaussianBlur>
            <feColorMatrix values="0 0 0 0 0   0 0 0 0 0   0 0 0 0 0  0 0 0 0.740432518 0" type="matrix" in="shadowBlurOuter1"></feColorMatrix>
        </filter>
    </defs>
    <g id="Page-1" stroke="none" stroke-width="1" fill="none" fill-rule="evenodd">
        <g id="Artboard-Copy-2" transform="translate(-89.000000, -37.000000)">
            <g id="salo" transform="translate(89.000000, 37.000000)">
                <g id="Top" transform="translate(19.000000, 0.000000)">
                    <g id="Group">
                        <mask id="mask-2" fill="white">
                            <use xlink:href="#path-1"></use>
                        </mask>
                        <use id="Salo" fill="#1A418E" xlink:href="#path-1"></use>
                        <g id="a" mask="url(#mask-2)">
                            <use fill="black" fill-opacity="1" filter="url(#filter-5)" xlink:href="#path-4"></use>
                            <use fill="url(#linearGradient-3)" fill-rule="evenodd" xlink:href="#path-4"></use>
                        </g>
                    </g>
                </g>
                <g id="Group-2" transform="translate(0.000000, 1.000000)" font-family="BebasNeue-Regular, Bebas Neue" fill="#ED1F1F" font-weight="normal">
                    <text id="70" font-size="20">
                        <tspan x="0" y="18">70</tspan>
                    </text>
                    <text id="JAAR" font-size="10">
                        <tspan x="1" y="28">JAAR</tspan>
                    </text>
                </g>
            </g>
        </g>
    </g>
</svg>